<?xml version="1.0" encoding="UTF-8" ?>

<svg width="1183pt" height="663pt" viewBox="0 0 1183 663" version="1.1" xmlns="http://www.w3.org/2000/svg">
<g id="#EAE8E3ff">
<path fill="#EAE8E3" opacity="1.00" d=" M 756.51 0.00 L 888.29 0.00 C 893.15 0.81 898.09 0.45 902.99 0.49 C 940.91 0.52 978.83 0.69 1016.75 0.77 C 1016.65 22.34 1016.93 43.91 1016.61 65.48 C 943.76 65.23 870.91 65.46 798.05 65.37 C 789.83 40.60 775.40 18.00 756.51 0.00 Z"></path>
<path fill="#EAE8E3" opacity="1.00" d=" M 463.25 0.56 C 525.48 0.52 587.71 0.49 649.93 0.58 C 681.53 3.05 713.05 16.88 733.61 41.47 C 745.04 55.08 752.68 71.61 756.73 88.85 C 762.45 113.10 762.71 139.01 754.88 162.83 C 743.72 197.12 717.18 224.99 685.68 241.75 C 699.46 266.85 713.10 292.03 726.87 317.13 C 823.23 317.11 919.59 317.12 1015.95 317.13 C 1015.99 337.57 1015.96 358.01 1015.97 378.45 C 906.33 378.49 796.68 378.46 687.04 378.47 C 649.16 314.54 611.35 250.58 573.47 186.65 C 594.63 186.26 615.80 186.66 636.97 186.45 C 652.84 185.55 668.89 179.65 680.22 168.24 C 689.03 159.44 694.11 147.43 695.71 135.18 C 697.91 119.51 695.43 102.70 686.77 89.25 C 676.56 73.53 658.40 64.16 640.09 62.02 C 593.16 61.82 546.23 62.17 499.31 61.84 C 487.45 41.32 475.19 21.03 463.25 0.56 Z"></path>
<path fill="#EAE8E3" opacity="1.00" d=" M 803.21 156.63 C 872.18 156.70 941.15 156.79 1010.12 156.76 C 1010.14 178.54 1010.32 200.33 1010.47 222.12 C 932.02 222.13 853.57 222.13 775.11 222.12 C 788.47 202.31 798.30 180.04 803.21 156.63 Z"></path>
<path fill="#EAE8E3" opacity="1.00" d=" M 463.71 436.58 C 486.82 436.39 509.92 436.55 533.03 436.50 C 543.80 436.62 555.13 437.86 564.43 443.73 C 570.86 447.69 575.38 454.45 576.73 461.87 C 578.49 470.86 577.43 481.07 571.30 488.27 C 567.30 493.20 561.55 496.17 555.84 498.66 C 563.79 500.27 571.78 503.72 576.79 510.36 C 583.32 518.71 583.68 530.14 581.75 540.15 C 580.10 549.08 574.43 557.22 566.33 561.42 C 554.61 567.64 540.94 568.17 527.97 568.00 C 506.56 568.00 485.16 568.01 463.75 568.00 C 463.72 524.19 463.80 480.38 463.71 436.58 M 478.25 448.76 C 478.25 463.47 478.25 478.17 478.25 492.87 C 492.82 492.88 507.39 492.87 521.96 492.87 C 530.59 492.91 539.39 493.16 547.80 490.85 C 552.04 489.67 556.31 487.67 558.96 484.02 C 562.85 478.78 563.30 471.79 562.31 465.55 C 561.46 460.19 558.15 455.23 553.24 452.82 C 545.76 449.13 537.19 448.77 529.01 448.74 C 512.09 448.77 495.17 448.72 478.25 448.76 M 478.25 504.90 C 478.25 521.56 478.25 538.21 478.25 554.87 C 496.18 554.88 514.11 554.88 532.05 554.86 C 540.59 554.68 549.48 554.17 557.27 550.32 C 563.13 547.50 567.06 541.47 567.68 535.05 C 568.68 526.36 566.95 516.12 559.35 510.74 C 550.83 504.87 539.94 504.83 529.99 504.87 C 512.74 504.90 495.49 504.84 478.25 504.90 Z"></path>
<path fill="#EAE8E3" opacity="1.00" d=" M 884.73 436.54 C 890.72 436.41 896.71 436.60 902.70 436.42 C 936.00 475.49 968.80 514.99 1002.07 554.10 C 1002.19 514.90 1002.10 475.71 1002.11 436.52 C 1006.73 436.48 1011.36 436.49 1016.00 436.50 C 1016.00 480.33 1016.00 524.17 1016.00 568.00 C 1009.63 568.00 1003.26 568.00 996.90 568.00 C 967.33 532.63 937.80 497.23 908.25 461.85 C 905.07 458.14 902.12 454.22 898.71 450.72 C 898.53 489.79 898.64 528.88 898.65 567.96 C 894.02 568.03 889.38 568.00 884.75 567.99 C 884.73 524.18 884.77 480.36 884.73 436.54 Z"></path>
<path fill="#EAE8E3" opacity="1.00" d=" M 8.21 552.08 C 27.37 513.54 46.57 475.02 65.77 436.50 C 71.23 436.50 76.70 436.50 82.16 436.50 C 103.74 480.32 125.33 524.15 146.87 567.99 C 142.03 568.01 137.18 568.03 132.34 567.94 C 125.89 554.44 119.12 541.10 112.72 527.58 C 86.83 527.40 60.95 527.54 35.06 527.51 C 28.59 540.57 22.10 553.63 15.68 566.71 C 15.43 566.96 14.95 567.46 14.70 567.70 C 9.88 568.46 4.88 567.86 0.00 567.81 L 0.00 567.32 C 3.31 562.56 5.56 557.21 8.21 552.08 M 41.39 514.56 C 62.96 514.71 84.55 514.57 106.13 514.63 C 95.47 492.31 84.68 470.06 73.89 447.82 C 62.93 470.00 52.25 492.33 41.39 514.56 Z"></path>
<path fill="#EAE8E3" opacity="1.00" d=" M 165.23 567.97 C 165.36 524.12 165.07 480.26 165.38 436.41 C 182.91 436.61 200.46 436.44 217.99 436.50 C 231.33 436.60 244.94 435.75 257.94 439.34 C 266.16 441.54 274.29 445.80 279.11 453.04 C 284.21 460.63 284.99 470.26 283.76 479.10 C 282.86 485.76 279.95 492.31 274.80 496.74 C 270.65 500.51 265.43 502.76 260.22 504.62 C 266.83 505.71 274.31 508.10 277.48 514.58 C 285.34 531.39 279.67 551.46 288.25 568.02 C 282.74 567.98 277.22 567.99 271.71 568.02 C 267.54 555.40 268.47 541.94 266.73 528.93 C 265.99 523.60 263.44 518.13 258.62 515.38 C 252.98 512.19 246.31 511.78 239.98 511.63 C 219.86 511.62 199.74 511.62 179.63 511.63 C 179.64 530.40 179.58 549.17 179.66 567.95 C 174.85 568.04 170.04 568.01 165.23 567.97 M 179.63 448.88 C 179.62 465.62 179.62 482.37 179.63 499.12 C 197.77 499.12 215.91 499.13 234.05 499.12 C 242.12 498.91 250.46 498.27 257.90 494.87 C 262.52 492.81 266.34 488.96 268.10 484.19 C 270.32 478.12 270.38 471.31 268.64 465.11 C 267.17 459.73 263.12 455.24 258.00 453.07 C 249.52 449.47 240.13 449.11 231.04 448.89 C 213.91 448.86 196.77 448.88 179.63 448.88 Z"></path>
<path fill="#EAE8E3" opacity="1.00" d=" M 364.20 436.54 C 369.72 436.48 375.24 436.44 380.76 436.56 C 402.18 480.43 423.89 524.15 445.36 567.99 C 440.55 568.00 435.74 568.00 430.94 568.00 C 424.25 554.53 417.75 540.98 411.07 527.51 C 385.16 527.59 359.25 527.31 333.35 527.65 C 326.97 541.16 320.09 554.42 313.64 567.89 C 308.68 568.09 303.72 567.97 298.76 567.99 C 320.57 524.17 342.44 480.38 364.20 436.54 M 366.61 459.55 C 357.71 477.91 348.73 496.23 339.90 514.63 C 361.49 514.62 383.08 514.62 404.66 514.63 C 394.00 492.35 383.11 470.18 372.51 447.87 C 370.24 451.60 368.58 455.66 366.61 459.55 Z"></path>
<path fill="#EAE8E3" opacity="1.00" d=" M 609.35 567.95 C 609.44 524.13 609.31 480.30 609.41 436.48 C 614.15 436.50 618.90 436.54 623.65 436.43 C 623.85 476.12 623.75 515.82 623.69 555.52 C 653.42 555.77 683.15 555.54 712.88 555.63 C 712.87 559.75 712.87 563.87 712.88 567.99 C 678.37 567.98 643.86 568.06 609.35 567.95 Z"></path>
<path fill="#EAE8E3" opacity="1.00" d=" M 785.15 436.56 C 790.69 436.45 796.24 436.46 801.79 436.56 C 823.22 480.43 844.87 524.19 866.43 567.99 C 861.59 568.00 856.76 567.99 851.93 568.00 C 845.32 554.51 838.72 541.01 832.13 527.51 C 806.30 527.46 780.48 527.57 754.65 527.45 C 747.91 540.89 741.20 554.36 734.70 567.92 C 729.73 568.07 724.77 567.99 719.80 567.98 C 741.54 524.15 763.51 480.44 785.15 436.56 M 793.32 447.85 C 782.52 470.11 771.64 492.33 760.92 514.63 C 782.51 514.59 804.09 514.67 825.68 514.59 C 814.86 492.36 804.32 469.99 793.32 447.85 Z"></path>
<path fill="#EAE8E3" opacity="1.00" d=" M 1049.34 567.95 C 1049.44 524.13 1049.31 480.30 1049.41 436.48 C 1063.94 436.52 1078.47 436.49 1093.00 436.50 C 1106.49 436.48 1120.05 436.42 1133.42 438.42 C 1145.25 440.21 1156.99 444.93 1165.57 453.49 C 1173.37 461.06 1178.09 471.31 1180.22 481.87 C 1183.03 496.22 1182.93 511.20 1179.58 525.46 C 1176.90 536.77 1170.76 547.39 1161.54 554.60 C 1152.57 561.85 1141.16 565.38 1129.83 566.66 C 1114.93 568.45 1099.90 567.92 1084.93 568.00 C 1073.06 567.97 1061.20 568.07 1049.34 567.95 M 1063.75 448.51 C 1063.75 484.13 1063.75 519.75 1063.75 555.37 C 1080.83 555.23 1097.93 555.71 1115.00 555.05 C 1128.35 554.47 1142.65 552.17 1153.01 543.02 C 1162.28 535.09 1166.13 522.73 1167.09 510.94 C 1168.05 498.88 1167.64 486.33 1163.07 474.98 C 1159.46 465.96 1152.32 458.43 1143.43 454.48 C 1131.73 449.18 1118.62 448.92 1106.01 448.53 C 1091.92 448.47 1077.84 448.51 1063.75 448.51 Z"></path>
<path fill="#EAE8E3" opacity="1.00" d=" M 655.37 629.40 C 657.62 625.32 662.45 623.66 666.84 623.28 C 672.36 622.88 678.67 623.16 683.01 627.06 C 685.32 629.01 685.98 632.04 686.56 634.87 C 683.66 634.96 680.78 635.04 677.89 635.11 C 676.83 633.26 676.06 630.80 673.76 630.18 C 670.58 629.27 666.88 629.30 663.97 631.01 C 662.01 632.04 662.26 634.94 664.28 635.77 C 670.43 638.75 677.94 638.18 683.62 642.28 C 688.34 645.60 688.97 652.98 685.31 657.30 C 682.47 660.99 677.61 661.84 673.38 663.00 L 667.71 663.00 C 663.65 661.93 659.17 661.02 656.21 657.79 C 653.98 655.56 653.22 652.42 652.42 649.49 C 655.25 649.22 658.07 648.96 660.91 648.74 C 662.00 650.95 662.78 653.69 665.22 654.81 C 668.71 656.46 673.17 656.45 676.55 654.51 C 678.94 653.25 679.85 649.25 677.04 647.93 C 670.91 644.97 663.33 645.60 657.81 641.24 C 654.28 638.55 653.11 633.25 655.37 629.40 Z"></path>
<path fill="#EAE8E3" opacity="1.00" d=" M 166.32 624.01 C 174.92 623.90 183.57 623.51 192.15 624.28 C 198.15 624.60 202.84 630.67 201.47 636.57 C 200.74 641.78 195.51 644.43 190.81 645.18 C 197.41 648.92 200.72 656.08 205.19 661.88 C 201.64 661.65 197.87 662.37 194.46 661.51 C 190.77 657.18 187.84 652.23 183.88 648.13 C 181.65 645.68 178.10 646.13 175.12 645.94 C 175.12 651.25 175.13 656.56 175.12 661.87 C 172.20 661.87 169.28 661.87 166.37 661.86 C 166.36 649.24 166.44 636.63 166.32 624.01 M 175.15 630.36 C 175.12 633.53 175.12 636.70 175.13 639.87 C 180.02 639.68 185.06 640.40 189.86 639.19 C 193.74 637.87 193.30 631.35 189.17 630.73 C 184.55 629.97 179.82 630.54 175.15 630.36 Z"></path>
<path fill="#EAE8E3" opacity="1.00" d=" M 254.63 623.88 C 265.22 623.84 275.82 623.94 286.41 623.83 C 286.49 626.01 286.50 628.20 286.48 630.39 C 278.82 630.38 271.15 630.34 263.49 630.41 C 263.50 633.13 263.50 635.86 263.49 638.59 C 270.62 638.67 277.75 638.58 284.89 638.64 C 284.87 640.80 284.87 642.95 284.87 645.12 C 277.75 645.13 270.63 645.12 263.51 645.12 C 263.50 648.53 263.50 651.95 263.51 655.37 C 271.48 655.42 279.45 655.29 287.42 655.44 C 287.39 657.58 287.37 659.73 287.36 661.87 C 276.45 661.87 265.54 661.87 254.63 661.88 C 254.62 649.21 254.62 636.54 254.63 623.88 Z"></path>
<path fill="#EAE8E3" opacity="1.00" d=" M 335.06 661.86 C 340.68 649.20 346.17 636.49 351.85 623.86 C 354.95 623.87 358.05 623.87 361.15 623.89 C 366.89 636.55 372.64 649.21 378.40 661.87 C 375.24 661.86 372.07 661.87 368.91 661.91 C 367.62 659.02 366.37 656.11 365.08 653.23 C 359.39 653.27 353.71 653.24 348.02 653.25 C 346.82 656.06 345.65 658.88 344.60 661.76 C 341.42 661.90 338.24 661.90 335.06 661.86 M 356.35 633.07 C 354.47 637.62 352.58 642.18 350.71 646.74 C 354.55 646.75 358.38 646.75 362.22 646.75 C 360.33 642.16 358.45 637.56 356.35 633.07 Z"></path>
<path fill="#EAE8E3" opacity="1.00" d=" M 428.01 624.12 C 430.96 624.12 433.91 624.12 436.87 624.12 C 436.88 634.54 436.87 644.95 436.88 655.37 C 444.06 655.42 451.24 655.29 458.42 655.44 C 458.38 657.58 458.37 659.73 458.35 661.88 C 448.24 661.87 438.12 661.87 428.01 661.88 C 427.99 649.29 428.00 636.70 428.01 624.12 Z"></path>
<path fill="#EAE8E3" opacity="1.00" d=" M 570.01 623.88 C 580.63 623.87 591.25 623.87 601.87 623.88 C 601.87 626.03 601.87 628.19 601.88 630.36 C 594.25 630.37 586.63 630.42 579.00 630.33 C 578.82 633.10 578.82 635.89 579.00 638.67 C 586.08 638.57 593.16 638.64 600.25 638.63 C 600.24 640.79 600.24 642.95 600.25 645.12 C 593.12 645.13 586.00 645.12 578.88 645.13 C 578.87 648.54 578.87 651.95 578.88 655.37 C 586.83 655.38 594.79 655.37 602.74 655.37 C 602.74 657.53 602.75 659.70 602.76 661.87 C 591.84 661.89 580.92 661.86 570.01 661.88 C 569.99 649.21 570.00 636.54 570.01 623.88 Z"></path>
<path fill="#EAE8E3" opacity="1.00" d=" M 736.75 623.88 C 748.12 623.87 759.50 623.87 770.87 623.88 C 770.87 626.04 770.87 628.20 770.88 630.36 C 766.67 630.38 762.46 630.38 758.26 630.37 C 758.24 640.87 758.26 651.37 758.25 661.87 C 755.28 661.87 752.32 661.87 749.37 661.86 C 749.41 651.39 749.31 640.93 749.42 630.46 C 745.20 630.32 740.97 630.38 736.75 630.37 C 736.74 628.20 736.74 626.04 736.75 623.88 Z"></path>
<path fill="#EAE8E3" opacity="1.00" d=" M 812.97 661.86 C 818.59 649.19 824.05 636.44 829.80 623.82 C 832.87 623.87 835.95 623.88 839.03 623.88 C 844.80 636.53 850.54 649.20 856.29 661.87 C 853.13 661.86 849.98 661.87 846.83 661.92 C 845.51 659.04 844.27 656.13 843.00 653.23 C 837.32 653.26 831.63 653.26 825.95 653.23 C 824.71 656.05 823.53 658.89 822.46 661.78 C 819.29 661.89 816.12 661.90 812.97 661.86 M 834.27 633.06 C 832.37 637.61 830.45 642.16 828.63 646.75 C 832.46 646.75 836.30 646.75 840.14 646.74 C 838.22 642.16 836.33 637.57 834.27 633.06 Z"></path>
<path fill="#EAE8E3" opacity="1.00" d=" M 898.63 623.88 C 910.04 623.87 921.46 623.87 932.87 623.88 C 932.87 626.04 932.86 628.20 932.88 630.37 C 928.67 630.38 924.46 630.38 920.26 630.37 C 920.23 640.87 920.26 651.37 920.25 661.87 C 917.28 661.88 914.31 661.87 911.36 661.85 C 911.41 651.38 911.33 640.91 911.41 630.44 C 907.14 630.33 902.88 630.38 898.63 630.37 C 898.61 628.20 898.62 626.04 898.63 623.88 Z"></path>
<path fill="#EAE8E3" opacity="1.00" d=" M 983.35 623.96 C 993.98 623.77 1004.61 623.92 1015.25 623.88 C 1015.24 626.04 1015.24 628.20 1015.25 630.37 C 1007.54 630.38 999.84 630.38 992.14 630.37 C 992.11 633.12 992.11 635.87 992.14 638.63 C 999.28 638.60 1006.41 638.65 1013.56 638.60 C 1013.60 640.72 1013.64 642.85 1013.70 644.99 C 1006.51 645.29 999.31 645.05 992.13 645.13 C 992.12 648.54 992.12 651.95 992.12 655.37 C 1000.10 655.37 1008.07 655.40 1016.05 655.35 C 1016.09 657.51 1016.12 659.69 1016.14 661.87 C 1005.22 661.87 994.29 661.88 983.37 661.86 C 983.37 649.23 983.41 636.59 983.35 623.96 Z"></path>
</g>
<g id="#c9a445ff">
<path fill="#c9a445" opacity="1.00" d=" M 315.50 0.51 C 348.92 0.49 382.34 0.48 415.76 0.52 C 489.20 126.57 562.78 252.55 636.19 378.62 C 601.65 378.62 567.11 378.63 532.58 378.62 C 460.25 252.57 387.84 126.56 315.50 0.51 Z"></path>
<path fill="#c9a445" opacity="1.00" d=" M 165.77 378.62 C 219.73 287.69 274.13 197.02 328.20 106.15 C 344.47 134.31 360.58 162.55 376.61 190.85 C 340.04 253.36 303.62 315.96 267.21 378.57 C 233.40 378.70 199.59 378.60 165.77 378.62 Z"></path>
</g>
</svg>