<svg width="319" height="75" viewBox="0 0 319 75" fill="none" xmlns="http://www.w3.org/2000/svg">
<path d="M0.0346369 6.15524C2.08004 4.12626 4.11723 2.08907 6.14895 0.0409276C17.4986 -0.00288293 28.8483 0.0217603 40.198 0.0299747C40.2062 2.08633 40.2144 4.14269 40.1925 6.19905C29.1194 6.20726 18.0463 6.20179 6.97313 6.20179C6.64729 6.16072 6.12704 6.22643 6.20371 6.6837C6.17907 12.4448 6.20371 18.2059 6.19276 23.9642C6.14347 24.2955 6.23383 24.7829 6.68015 24.7117C17.8436 24.7419 29.0098 24.7008 40.1733 24.7309C40.2199 26.6668 40.2226 28.6054 40.1898 30.5386C40.2746 31.0971 39.6366 30.9465 39.3026 30.9794C28.5115 30.9684 17.7204 30.9767 6.92932 30.9739C6.45015 31.0123 5.9874 30.8398 5.66977 30.4756C4.02414 28.8327 2.39219 27.1734 0.73013 25.5442C0.382383 25.1772 -0.0803653 24.7994 0.0127321 24.2298C0.0209466 18.2059 -0.01465 12.1792 0.0346369 6.15524Z" fill="#1B1812"/>
<path d="M52.2787 0.285286C52.6018 -0.043293 53.092 0.0388524 53.5082 0.0142089C62.2703 0.0278997 71.0324 0.0196838 79.7945 0.0169456C80.4462 -0.103533 80.8733 0.4441 81.2895 0.84661C82.9516 2.5607 84.6849 4.20907 86.3387 5.93137C86.7193 6.25721 86.6235 6.79116 86.6536 7.232C86.6289 12.9027 86.6645 18.5762 86.6344 24.2442C86.6947 24.8384 86.1908 25.219 85.8321 25.6051C84.1208 27.2699 82.4697 28.9922 80.7556 30.6515C80.4407 31.0047 79.9451 30.9664 79.5207 30.9801C70.7558 30.9664 61.9937 30.9828 53.2289 30.9718C52.4293 31.0704 51.9748 30.312 51.4545 29.8465C49.8144 28.1214 48.0182 26.536 46.4547 24.748C46.3068 19.0225 46.4465 13.2806 46.3862 7.54689C46.4218 6.9308 46.2493 6.18055 46.8024 5.74518C48.626 3.9243 50.4305 2.07878 52.2787 0.285286ZM52.5909 7.24021C52.6265 13.0643 52.5498 18.8911 52.6292 24.7124C61.5994 24.7343 70.5724 24.7124 79.5426 24.7234C79.9287 24.7152 80.5174 24.8028 80.427 24.2168C80.4708 18.557 80.4215 12.8973 80.4489 7.23474C80.3805 6.91985 80.5831 6.15316 80.0437 6.22436C71.1091 6.18055 62.169 6.21066 53.2316 6.20793C52.5471 6.02173 52.5799 6.78568 52.5909 7.24021Z" fill="#1B1812"/>
<path d="M94.0986 4.84457C95.758 3.28382 97.2503 1.53414 98.9917 0.0692199C107.831 -0.0512592 116.677 0.0637438 125.519 0.0117188C126.083 0.066482 126.787 -0.136142 127.2 0.364942C129.032 2.18856 130.861 4.01491 132.682 5.84948C133.033 6.11782 133.019 6.56961 133.03 6.96939C133.033 14.5431 133.019 22.1169 133.038 29.6879C132.975 30.0931 133.15 30.5997 132.866 30.9365C130.845 30.9967 128.813 31.0323 126.795 30.8954C126.773 22.6782 126.803 14.461 126.781 6.24103C117.685 6.16163 108.589 6.21639 99.4955 6.21365C99.0438 6.13425 98.978 6.65723 99.0164 6.97486C99.0218 14.9539 99.0109 22.9329 99.0219 30.9146C97.0914 31.0269 95.1528 30.9694 93.2197 30.9666C92.7788 31.0625 92.735 30.5367 92.7624 30.2437C92.7679 22.4811 92.7652 14.7156 92.7624 6.95296C92.6392 5.99734 93.5401 5.45518 94.0986 4.84457Z" fill="#1B1812"/>
<path d="M144.968 0.400537C145.371 -0.09507 146.047 0.0363622 146.608 0.0117188C157.555 0.0610056 168.505 -0.0403062 179.45 0.0610057C179.444 2.07355 179.551 4.09431 179.403 6.10139C178.623 6.29579 177.807 6.18353 177.013 6.20544C166.493 6.20544 155.973 6.19722 145.455 6.21091C145.395 12.3772 145.401 18.5463 145.453 24.7127C155.882 24.7346 166.315 24.7181 176.744 24.7209C177.629 24.7373 178.527 24.6442 179.403 24.814C179.54 26.706 179.461 28.6145 179.452 30.5121C179.518 30.942 178.951 30.9858 178.661 30.9776C167.878 30.9776 157.093 30.9666 146.31 30.983C145.822 30.9967 145.288 30.9666 144.949 30.5696C143.29 28.9459 141.674 27.2756 140.012 25.6518C139.648 25.2493 139.106 24.866 139.174 24.2526C139.163 18.4012 139.158 12.5498 139.177 6.6983C139.108 6.15615 139.566 5.81388 139.894 5.46066C141.597 3.78764 143.268 2.08177 144.968 0.400537Z" fill="#1B1812"/>
<path d="M186.358 5.40106C188.168 3.624 189.943 1.81133 191.753 0.03153C203.1 0.0178392 214.444 0.0123635 225.791 0.0342687C225.796 2.08789 225.802 4.14151 225.785 6.19513C217.379 6.21703 208.97 6.19787 200.564 6.20334C197.637 6.24715 194.704 6.11298 191.783 6.27727C191.857 8.30077 191.665 10.338 191.879 12.3533C203.176 12.4737 214.485 12.356 225.785 12.4108C225.802 14.4644 225.796 16.518 225.791 18.5716C217.198 18.599 208.606 18.5771 200.016 18.5853C197.273 18.6236 194.526 18.5004 191.788 18.651C191.857 20.6581 191.662 22.6816 191.884 24.6777C202.894 24.7872 213.913 24.6887 224.925 24.7243C225.125 24.7434 225.525 24.779 225.722 24.7955C225.892 26.8299 225.744 28.878 225.796 30.9207C214.926 31.0549 204.052 30.9289 193.182 30.9837C192.519 30.9727 191.731 31.0905 191.273 30.4908C189.499 28.711 187.708 26.9449 185.945 25.1542C185.512 24.7927 185.603 24.1903 185.581 23.692C185.603 18.0212 185.575 12.3505 185.594 6.68252C185.529 6.12394 186.024 5.77071 186.358 5.40106Z" fill="#1B1812"/>
<path d="M237.348 0.755878C237.702 0.430037 238.038 -0.0327122 238.586 0.0302655C247.732 0.0110984 256.882 0.0165741 266.031 0.0275268C267.964 1.94698 269.897 3.8719 271.814 5.80778C272.331 6.22672 272.17 6.93317 272.205 7.5164C272.178 8.98679 272.222 10.4599 272.191 11.9303C272.23 12.6231 271.545 13.0119 271.151 13.4801C269.399 15.1257 267.816 16.9603 265.99 18.5211C256.88 18.6771 247.751 18.5238 238.633 18.595C238.247 18.543 238.126 18.9811 238.175 19.2795C238.173 22.8446 238.17 26.4097 238.181 29.9748C238.121 30.2951 238.326 31.0399 237.765 30.9605C235.894 30.9633 234.016 31.0399 232.149 30.9194C232.113 30.8318 232.039 30.6511 232.004 30.5608C231.976 22.4257 231.993 14.2906 231.995 6.15553C233.75 4.32918 235.58 2.57402 237.348 0.755878ZM238.268 6.20208C238.107 8.26118 238.118 10.3422 238.266 12.3985C247.477 12.3684 256.696 12.4643 265.905 12.352C266.063 10.3312 266.044 8.27487 265.913 6.2541C256.704 6.13363 247.482 6.23767 238.268 6.20208Z" fill="#1B1812"/>
<path d="M278.508 0.0255012C291.876 0.0364538 305.244 -0.0183098 318.609 0.0528823C318.625 2.0846 318.62 4.11357 318.611 6.14255C312.971 6.31779 307.319 6.09874 301.679 6.25208C301.468 8.3057 301.651 10.384 301.591 12.4485C301.594 18.5984 301.586 24.7511 301.596 30.901C299.68 31.0406 297.755 30.964 295.835 30.9667C295.4 31.0461 295.348 30.5423 295.386 30.2438C295.397 22.577 295.378 14.9101 295.395 7.24329C295.318 6.93114 295.531 6.15624 295 6.22469C289.464 6.16446 283.927 6.24112 278.393 6.1891C278.437 4.13274 278.363 2.07638 278.508 0.0255012Z" fill="#1B1812"/>
<path d="M3.23018 46.2351C4.22961 45.2959 5.10855 44.2198 6.18465 43.3683C6.98419 43.2122 7.80564 43.2998 8.61614 43.2834C16.8224 43.2861 25.0314 43.2861 33.2404 43.2834C33.6402 43.2943 34.0947 43.2806 34.3713 43.6256C36.0826 45.3014 37.7474 47.0237 39.4615 48.694C39.7956 49.0581 40.2802 49.4004 40.1981 49.9617C40.2172 51.6977 40.209 53.4392 40.2036 55.1779C40.2994 55.8159 39.7271 56.2047 39.352 56.6209C37.6817 58.2392 36.0771 59.9259 34.4041 61.5387C34.1221 61.8864 33.6676 61.8371 33.2678 61.8508C24.7795 61.8371 16.2885 61.8563 7.79743 61.8399C7.26075 61.8399 6.72681 61.8755 6.19287 61.9439C6.18191 66.0402 6.21751 70.1365 6.17644 74.2328C4.12008 74.2328 2.06372 74.2684 0.0101001 74.2109C0.0128383 66.7631 0.0128383 59.318 0.0101001 51.873C0.0237909 51.068 -0.0528775 50.2547 0.0785541 49.4579C1.04239 48.3052 2.19515 47.3249 3.23018 46.2351ZM6.1956 49.6195C6.22299 51.5499 6.1381 53.483 6.22846 55.4107C6.27501 55.4654 6.37358 55.5777 6.42287 55.6325C15.2726 55.7119 24.1278 55.6325 32.9803 55.6708C33.3171 55.6188 33.7908 55.7913 33.9907 55.4189C34.0755 53.4858 33.9961 51.5499 34.0208 49.6167C32.8543 49.4661 31.6769 49.5318 30.505 49.5264C22.9285 49.5209 15.3547 49.5318 7.77826 49.5182C7.2498 49.5209 6.71859 49.5538 6.1956 49.6195Z" fill="#1B1812"/>
<path d="M46.4135 43.3256C48.3275 43.2572 50.2442 43.2709 52.1554 43.2955C52.7222 43.2079 52.5689 43.8705 52.6017 44.2073C52.6154 52.1425 52.547 60.0777 52.6346 68.0102C63.6064 68.0622 74.5782 68.0266 85.55 68.0266C85.9032 68.0813 86.4098 67.8952 86.6124 68.3004C86.6863 70.2719 86.6453 72.2516 86.6179 74.223C75.4927 74.2559 64.3676 74.2258 53.2452 74.2395C52.4238 74.3572 51.9281 73.6234 51.4079 73.1305C49.754 71.4109 47.9907 69.7954 46.3861 68.0293C46.4162 59.7929 46.3642 51.5593 46.4135 43.3256Z" fill="#1B1812"/>
<path d="M92.8011 43.4302L92.9736 43.3289C94.9807 43.2276 96.9987 43.2851 99.0085 43.3152C99.0304 51.0998 99.0112 58.8844 99.0167 66.669C99.0222 67.1262 99.0496 67.5863 99.0906 68.0435C106.993 68.0244 114.895 68.0408 122.795 68.0353C124.115 67.9805 125.454 68.1613 126.757 67.9395C126.842 59.7305 126.743 51.5133 126.806 43.3015C128.876 43.2741 130.944 43.2659 133.014 43.307C133.052 51.275 133.014 59.2431 133.033 67.2111C133.058 67.6985 132.989 68.2051 132.578 68.5282C130.793 70.3052 129.021 72.096 127.231 73.8649C126.949 74.2071 126.511 74.2591 126.097 74.24C117.327 74.2372 108.556 74.2318 99.7861 74.2427C99.3727 74.24 98.9072 74.2564 98.6169 73.9087C96.8125 72.1371 95.0354 70.3326 93.2447 68.5473C92.6532 68.0928 92.7682 67.3124 92.7573 66.6608C92.8011 58.9172 92.7107 51.171 92.8011 43.4302Z" fill="#1B1812"/>
<path d="M144.404 44.2134C144.853 43.7699 145.329 43.1839 146.041 43.2825C156.821 43.2797 167.604 43.2934 178.387 43.277C178.716 43.3317 179.422 43.1373 179.428 43.6713C179.526 45.6044 179.452 47.5458 179.45 49.4844C168.122 49.5802 156.794 49.4926 145.466 49.5282C145.381 51.5681 145.406 53.6135 145.453 55.6535C154.516 55.6781 163.582 55.6535 172.648 55.6672C173.393 55.585 173.847 56.2805 174.337 56.7186C175.789 58.2 177.262 59.6567 178.735 61.1188C179.116 61.4967 179.515 61.9512 179.463 62.5345C179.474 64.1938 179.485 65.8586 179.458 67.5179C179.502 68.0984 179.014 68.4763 178.664 68.8569C177.004 70.4888 175.372 72.1481 173.721 73.7883C173.445 74.0977 173.061 74.2894 172.64 74.2401C164.51 74.2346 156.381 74.2374 148.251 74.2374C145.223 74.2018 142.189 74.314 139.163 74.1771C139.234 72.1536 139.037 70.1137 139.262 68.1011C142.616 67.9451 145.987 68.082 149.349 68.0354C157.281 68.0163 165.211 68.0738 173.141 68.0053C173.198 65.9736 173.166 63.9391 173.163 61.9074C163.924 61.7431 154.675 61.9266 145.436 61.8171C143.24 59.8976 141.274 57.7071 139.182 55.6699C139.152 54.0434 139.174 52.417 139.158 50.7905C139.196 50.2401 139.051 49.5748 139.494 49.1503C141.107 47.4828 142.783 45.8755 144.404 44.2134Z" fill="#1B1812"/>
</svg>
