<svg width="140" height="165" viewBox="0 0 140 165" fill="none" xmlns="http://www.w3.org/2000/svg">
<path d="M15.3317 6.30395C17.5281 4.2787 19.3252 1.77803 21.8734 0.161638C41.3462 -0.0950839 60.8381 0.218689 80.3204 0C80.8053 7.10264 80.3394 14.2338 80.5676 21.346C61.9695 21.7928 43.3429 21.4315 24.7354 21.5266C23.4803 21.5361 21.2744 21.2604 21.5881 23.2476C21.5216 42.9106 21.6167 62.5831 21.5406 82.2556C21.7308 83.349 21.0271 85.8687 22.8717 85.7641C41.9833 85.9353 61.1138 85.8212 80.2348 85.8212C80.7958 92.7717 80.482 99.7792 80.444 106.739C80.2633 106.92 79.8925 107.3 79.7023 107.481C61.0472 107.662 42.3636 107.509 23.699 107.557C21.2078 107.842 19.6485 105.598 18.0511 104.086C12.194 97.9632 5.85204 92.2772 0.232682 85.9448C-0.252237 65.7208 0.204159 45.4588 0.00448643 25.2253C0.166126 23.6374 -0.385354 21.6597 0.974321 20.4712C5.61433 15.603 10.4825 10.963 15.3317 6.30395Z" fill="#1B1812"/>
<path d="M63.0056 45.345C69.0433 39.64 74.501 33.241 80.881 27.9449C93.2227 27.7262 105.583 27.8784 117.944 27.8689C124.429 34.1158 130.676 40.6099 137.113 46.9043C138.101 48.0358 139.68 49.0342 139.452 50.7552C139.509 71.0742 139.433 91.3933 139.49 111.712C139.547 112.958 139.385 114.28 138.311 115.088C132.178 121.278 125.978 127.391 119.855 133.591C118.866 134.637 117.64 135.587 116.109 135.445C104.309 135.559 92.5 135.331 80.7003 135.549C80.1964 145.229 80.8144 154.937 80.3961 164.616C73.4075 165.348 66.1908 164.797 59.1167 164.863C58.8029 148.728 59.0882 132.583 58.9646 116.447C58.7459 115.202 59.1167 113.348 60.7806 113.614C79.7971 113.509 98.804 113.728 117.811 113.5C118.087 92.211 117.868 70.9126 117.925 49.6142C109.738 48.9106 101.485 49.5096 93.2702 49.3194C89.0295 49.4145 84.7794 49.0342 80.5672 49.6047C80.3866 59.4266 80.6908 69.2676 80.4246 79.0801L80.0443 79.4509C73.0557 79.6601 66.0577 79.527 59.0692 79.489C58.879 70.247 59.0406 61.005 58.9646 51.763C58.4892 48.8345 61.3226 47.2276 63.0056 45.345Z" fill="#1B1812"/>
</svg>
